<?xml version="1.0" encoding="UTF-8"?><svg id="Layer_2" xmlns="http://www.w3.org/2000/svg" viewBox="0 0 436.2 425"><defs><style>.cls-1{fill:#fff;font-family:NexaRustSans-Black, 'Nexa Rust Sans';font-size:60.39px;font-weight:800;}.cls-2{fill:#006837;}.cls-3{letter-spacing:-.03em;}.cls-4{letter-spacing:-.02em;}.cls-5{fill:gray;}.cls-6{fill:#c97c22;}.cls-7{letter-spacing:-.05em;}</style></defs><g id="Layer_1-2"><path class="cls-5" d="m211.81,0h12.59c6.73,0,12.2,5.47,12.2,12.2v412.8h-36.99V12.2c0-6.73,5.47-12.2,12.2-12.2Z"/><path class="cls-6" d="m379.94,167.58h-236.95v111.72h236.95l53.91-50.45c3.15-2.95,3.15-7.94,0-10.88l-53.9-50.39Z"/><path class="cls-2" d="m56.27,147.96h236.95V36.23H56.27L2.36,86.68c-3.15,2.95-3.15,7.94,0,10.88l53.9,50.39Z"/><text class="cls-1" transform="translate(51.65 113.08)"><tspan x="0" y="0">C</tspan><tspan class="cls-4" x="44.39" y="0">R</tspan><tspan class="cls-3" x="89.02" y="0">OS</tspan><tspan x="181.65" y="0">S</tspan></text><text class="cls-1" transform="translate(156.58 243.68)"><tspan class="cls-4" x="0" y="0">R</tspan><tspan class="cls-7" x="44.63" y="0">O</tspan><tspan x="94.33" y="0">A</tspan><tspan class="cls-4" x="148.32" y="0">D</tspan><tspan x="194.7" y="0">S</tspan></text></g></svg>