<?xml version="1.0" encoding="UTF-8"?><svg id="Layer_2" xmlns="http://www.w3.org/2000/svg" viewBox="0 0 506 506"><defs><style>.cls-1{fill:#3b8200;}.cls-2{fill:#fff;}.cls-3,.cls-4{fill:#008747;}.cls-5{letter-spacing:0em;}.cls-6{fill:#c9c9c9;}.cls-4{font-family:NexaRustSans-Black, 'Nexa Rust Sans';font-size:63.4px;font-weight:800;}.cls-7{letter-spacing:-.05em;}.cls-8{letter-spacing:-.02em;}.cls-9{letter-spacing:-.03em;}.cls-10{letter-spacing:-.02em;}</style></defs><g id="Layer_1-2"><circle class="cls-3" cx="253" cy="253" r="253"/><path class="cls-6" d="m260.4,55h-15.43c-8.26,0-14.95,6.7-14.95,14.95v434.99c7.57.68,15.24,1.05,22.99,1.05s14.99-.35,22.35-.99V69.95c0-8.26-6.7-14.95-14.95-14.95Z"/><path class="cls-2" d="m173.83,391.42c-.55,0-1-.45-1-1v-117.29c0-.55.45-1,1-1h248.75c.25,0,.5.1.68.27l56.59,52.9c1.8,1.69,2.8,3.97,2.8,6.44,0,2.47-.99,4.76-2.79,6.45l-56.59,52.96c-.19.17-.43.27-.68.27h-248.75Z"/><path class="cls-1" d="m422.58,273.13l56.59,52.9c3.31,3.09,3.31,8.33,0,11.43l-56.59,52.96h-248.75v-117.29h248.75m0-2h-248.75c-1.1,0-2,.9-2,2v117.29c0,1.1.9,2,2,2h248.75c.51,0,1-.19,1.37-.54l56.59-52.96c1.98-1.85,3.11-4.47,3.11-7.17,0-2.71-1.14-5.32-3.11-7.17l-56.59-52.9c-.37-.35-.86-.54-1.37-.54h0Z"/><path class="cls-2" d="m82.79,253.53c-.25,0-.5-.1-.68-.27l-56.59-52.9c-1.8-1.69-2.8-3.97-2.8-6.44s.99-4.76,2.79-6.44l56.59-52.96c.19-.17.43-.27.68-.27h248.75c.55,0,1,.45,1,1v117.29c0,.55-.45,1-1,1H82.79Z"/><path class="cls-1" d="m331.53,135.24v117.29H82.79l-56.59-52.9c-3.31-3.09-3.31-8.33,0-11.43l56.59-52.96h248.75m0-2H82.79c-.51,0-1,.19-1.37.54l-56.59,52.96c-1.98,1.85-3.11,4.47-3.11,7.17,0,2.71,1.14,5.32,3.11,7.17l56.59,52.9c.37.35.86.54,1.37.54h248.75c1.1,0,2-.9,2-2v-117.29c0-1.1-.9-2-2-2h0Z"/><text class="cls-4" transform="translate(77.94 215.92)"><tspan x="0" y="0">C</tspan><tspan class="cls-8" x="46.6" y="0">R</tspan><tspan class="cls-9" x="93.45" y="0">OS</tspan><tspan class="cls-5" x="190.7" y="0">S</tspan></text><text class="cls-4" transform="translate(188.09 353.02)"><tspan class="cls-8" x="0" y="0">R</tspan><tspan class="cls-7" x="46.85" y="0">O</tspan><tspan x="99.03" y="0">A</tspan><tspan class="cls-10" x="155.71" y="0">D</tspan><tspan class="cls-5" x="204.4" y="0">S</tspan></text></g></svg>