<?xml version="1.0" encoding="UTF-8"?><svg id="Layer_2" xmlns="http://www.w3.org/2000/svg" viewBox="0 0 516 516"><defs><style>.cls-1,.cls-2{fill:#3b8200;}.cls-3,.cls-4{fill:#fff;}.cls-5{letter-spacing:0em;}.cls-6{fill:#c9c9c9;}.cls-2,.cls-4{font-family:NexaRustSans-Black, 'Nexa Rust Sans';font-size:63.4px;font-weight:800;}.cls-7{letter-spacing:-.05em;}.cls-8{letter-spacing:-.02em;}.cls-9{letter-spacing:-.03em;}.cls-10{fill:#4b1500;}.cls-11{letter-spacing:-.02em;}</style></defs><g id="Layer_1-2"><path class="cls-10" d="m258,513.5c-68.25,0-132.41-26.58-180.67-74.83C29.08,390.41,2.5,326.25,2.5,258S29.08,125.59,77.33,77.33C125.59,29.08,189.75,2.5,258,2.5s132.41,26.58,180.67,74.83c48.26,48.26,74.83,112.42,74.83,180.67s-26.58,132.41-74.83,180.67c-48.26,48.26-112.42,74.83-180.67,74.83Z"/><path class="cls-1" d="m258,5c139.73,0,253,113.27,253,253s-113.27,253-253,253S5,397.73,5,258,118.27,5,258,5m0-5c-34.83,0-68.62,6.82-100.43,20.28-30.72,12.99-58.31,31.6-82.01,55.29-23.69,23.69-42.29,51.28-55.29,82.01C6.82,189.38,0,223.17,0,258s6.82,68.62,20.28,100.43c12.99,30.72,31.6,58.31,55.29,82.01s51.28,42.29,82.01,55.29c31.81,13.45,65.6,20.28,100.43,20.28s68.62-6.82,100.43-20.28c30.72-12.99,58.31-31.6,82.01-55.29s42.29-51.28,55.29-82.01c13.45-31.81,20.28-65.6,20.28-100.43s-6.82-68.62-20.28-100.43c-12.99-30.72-31.6-58.31-55.29-82.01-23.69-23.69-51.28-42.29-82.01-55.29C326.62,6.82,292.83,0,258,0h0Z"/><path class="cls-6" d="m265.4,60h-15.43c-8.26,0-14.95,6.7-14.95,14.95v434.99c7.57.68,15.24,1.05,22.99,1.05s14.99-.35,22.35-.99V74.95c0-8.26-6.7-14.95-14.95-14.95Z"/><path class="cls-1" d="m178.83,396.42c-.55,0-1-.45-1-1v-117.29c0-.55.45-1,1-1h248.75c.25,0,.5.1.68.27l56.59,52.9c1.8,1.69,2.8,3.97,2.8,6.44,0,2.47-.99,4.76-2.79,6.44l-56.59,52.96c-.19.17-.43.27-.68.27h-248.75Z"/><path class="cls-3" d="m427.58,278.13l56.59,52.9c3.31,3.09,3.31,8.33,0,11.43l-56.59,52.96h-248.75v-117.29h248.75m0-2h-248.75c-1.1,0-2,.9-2,2v117.29c0,1.1.9,2,2,2h248.75c.51,0,1-.19,1.37-.54l56.59-52.96c1.98-1.85,3.11-4.47,3.11-7.17,0-2.71-1.14-5.32-3.11-7.17l-56.59-52.9c-.37-.35-.86-.54-1.37-.54h0Z"/><path class="cls-3" d="m87.79,258.53c-.25,0-.5-.1-.68-.27l-56.59-52.9c-1.8-1.69-2.8-3.97-2.8-6.44s.99-4.76,2.79-6.44l56.59-52.96c.19-.17.43-.27.68-.27h248.75c.55,0,1,.45,1,1v117.29c0,.55-.45,1-1,1H87.79Z"/><path class="cls-1" d="m336.53,140.24v117.29H87.79l-56.59-52.9c-3.31-3.09-3.31-8.33,0-11.43l56.59-52.96h248.75m0-2H87.79c-.51,0-1,.19-1.37.54l-56.59,52.96c-1.98,1.85-3.11,4.47-3.11,7.17,0,2.71,1.14,5.32,3.11,7.17l56.59,52.9c.37.35.86.54,1.37.54h248.75c1.1,0,2-.9,2-2v-117.29c0-1.1-.9-2-2-2h0Z"/><text class="cls-2" transform="translate(82.94 220.92)"><tspan x="0" y="0">C</tspan><tspan class="cls-8" x="46.6" y="0">R</tspan><tspan class="cls-9" x="93.45" y="0">OS</tspan><tspan class="cls-5" x="190.7" y="0">S</tspan></text><text class="cls-4" transform="translate(193.09 358.02)"><tspan class="cls-8" x="0" y="0">R</tspan><tspan class="cls-7" x="46.85" y="0">O</tspan><tspan x="99.03" y="0">A</tspan><tspan class="cls-11" x="155.71" y="0">D</tspan><tspan class="cls-5" x="204.4" y="0">S</tspan></text></g></svg>